<?xml version="1.0" encoding="UTF-8"?>
<svg width="119px" height="30px" viewBox="0 0 119 30" version="1.1" xmlns="http://www.w3.org/2000/svg" xmlns:xlink="http://www.w3.org/1999/xlink">
    <title>B48AC2A0-2B53-4B9F-83FC-AFEF933F6C58</title>
    <g id="Page-1" stroke="none" stroke-width="1" fill="none" fill-rule="evenodd">
        <g id="1440-RES" transform="translate(-1206.000000, -16.000000)">
            <g id="Company/glasses_usa" transform="translate(1206.000000, 16.000000)">
                <g id="glasses_usa" transform="translate(-0.000000, 0.000000)">
                    <polygon id="Shape" fill="#BBBDBF" fill-rule="nonzero" points="113.312601 1.61906878 113.312601 1.03758504 115.723508 1.03758504 115.723508 1.61906878 114.875884 1.61906878 114.875884 3.80447849 114.15515 3.80447849 114.15515 1.61906878"></polygon>
                    <path d="M116.958104,1.03758504 L117.283091,2.2405822 C117.283091,2.28389009 117.31135,2.34163396 117.33019,2.4090018 C117.34903,2.47636964 117.36316,2.54854947 117.37729,2.61591731 C117.391419,2.68328515 117.419679,2.77952492 117.438519,2.86614071 L117.438519,2.86614071 C117.452352,2.78163442 117.471227,2.69807084 117.495038,2.61591731 C117.495038,2.54854947 117.523298,2.48118163 117.542138,2.4090018 C117.560978,2.33682197 117.575108,2.28389009 117.589237,2.2405822 L117.918934,1.03758504 L118.823245,1.03758504 L118.823245,3.78523054 L118.215661,3.78523054 L118.215661,2.08659856 C118.215661,2.01441873 118.215661,1.93742691 118.215661,1.85081112 L118.215661,1.85081112 C118.215661,1.93261492 118.177981,2.00479475 118.163851,2.07216259 C118.149722,2.13953043 118.163851,2.18765032 118.126172,2.2405822 C118.088492,2.29351407 118.097912,2.33682197 118.093202,2.36088191 L117.702276,3.80447849 L117.184182,3.80447849 L116.797966,2.38494185 C116.797966,2.38494185 116.797966,2.31757401 116.764996,2.26464214 L116.713186,2.07216259 C116.713186,2.00479475 116.684927,1.93261492 116.666087,1.85081112 L116.666087,1.85081112 C116.666087,1.93742691 116.666087,2.01441873 116.666087,2.08659856 C116.666087,2.15877839 116.666087,2.20689827 116.666087,2.26945413 C116.666087,2.33200998 116.666087,2.37531788 116.666087,2.40418981 L116.666087,3.78523054 L116.067923,3.78523054 L116.067923,1.03758504 L116.958104,1.03758504 Z" id="Shape" fill="#BBBDBF" fill-rule="nonzero"></path>
                    <path d="M6.72987443,16.5611078 L10.023596,16.5611078 L10.023596,20.4118692 C9.42284157,20.9357271 8.40140636,21.259585 7.33775047,21.259585 C4.18696874,21.259585 2.30585947,18.9316662 2.30585947,15.0326814 C2.30585947,11.2504479 4.23427625,8.90019409 7.33775047,8.90019409 C8.63336575,8.90019409 9.61919316,9.33166618 10.5343137,10.3007017 L10.6340155,10.4062855 L11.9535389,8.9504479 L11.8655367,8.8611078 C10.5968816,7.56313826 9.06574619,6.90577785 7.31435106,6.90577785 C2.93916965,6.90577785 -8.54446338e-15,10.191057 -8.54446338e-15,15.0798895 C-8.54446338e-15,20.0448641 2.79673845,23.2545088 7.12461234,23.2545088 C9.03166444,23.2545088 10.8741138,22.5682144 12.052732,21.4184682 L12.0934267,21.3788743 L12.0934267,14.6611078 L6.72987443,14.6611078 L6.72987443,16.5611078 Z" id="Fill-1" fill="#0A2240"></path>
                    <path d="M17.2991855,21.3501941 C17.1023252,21.3933413 17.0204273,21.3933413 16.9064823,21.3933413 C16.6490888,21.3933413 16.5015707,21.1344581 16.5015707,20.6852195 L16.5015707,6.05831592 L14.3127083,6.05831592 L14.3127083,20.5446103 C14.3127083,22.3654225 15.0233383,23.2501941 16.4847842,23.2501941 C16.9802413,23.2501941 17.336828,23.1892804 17.6410204,23.0517169 L17.7361441,23.0085697 L17.4355125,21.3192296 L17.2991855,21.3501941 Z" id="Fill-3" fill="#0A2240"></path>
                    <path d="M23.8860183,11.0616154 C22.4108379,11.0616154 20.8807199,11.5641535 19.3389021,12.5550164 L19.23157,12.624052 L20.141095,14.1920723 L20.2606354,14.110854 C21.4356929,13.3088235 22.5217308,12.9184682 23.5813172,12.9184682 C25.0137682,12.9184682 25.7559365,13.7925799 25.7884922,15.5164377 C20.8817372,16.0783667 18.7859638,17.3900418 18.7859638,19.891057 C18.7859638,21.9007017 20.185859,23.2504479 22.2699328,23.2504479 C23.448551,23.2504479 24.6312387,22.7575545 25.9792483,21.7007017 L26.1328705,22.9697372 L27.9788807,22.9697372 L27.9788807,15.8697372 C27.9788807,12.724052 26.5637249,11.0616154 23.8860183,11.0616154 M25.7900183,17.0504479 L25.7900183,19.9935951 C24.6144522,21.0342042 23.7751254,21.4402956 22.8086279,21.4402956 C22.1152932,21.4402956 20.9514268,21.2204987 20.9514268,19.7504479 C20.9514268,18.2941027 22.4006643,17.4834428 25.7900183,17.0504479" id="Fill-5" fill="#0A2240"></path>
                    <path d="M33.8149993,16.1659809 L33.6384863,16.0989758 C32.4222256,15.6370469 31.3717955,15.2390773 31.3717955,14.3268946 C31.3717955,13.6010063 31.8840391,12.8248641 33.3220856,12.8248641 C34.1705686,12.8248641 34.9473274,13.1268946 35.8410832,13.8035443 L35.9484153,13.884255 L37.0207188,12.4583667 L36.9205083,12.3766408 C36.3131409,11.8857779 35.0353295,11.0614124 33.2986862,11.0614124 C30.8783731,11.0614124 29.2526226,12.4116662 29.2526226,14.4213108 C29.2526226,16.3944073 31.0513252,17.2096357 32.7360829,17.8182652 C33.9136838,18.2624276 35.249485,18.7644581 35.249485,19.8436459 C35.249485,20.8568438 34.4391532,21.4862855 33.1348903,21.4862855 C31.7034567,21.4862855 30.6810041,20.8162347 29.8691462,20.1609048 L29.7607968,20.0730875 L28.6406771,21.5725799 L28.7393616,21.6543058 C29.9515529,22.6532905 31.5686557,23.2507525 33.0646921,23.2507525 C36.0374348,23.2507525 37.3681492,21.4807017 37.3681492,19.7268946 C37.3681492,17.4832398 35.4799184,16.7827322 33.8149993,16.1659809" id="Fill-7" fill="#0A2240"></path>
                    <path d="M42.6918715,16.1659809 L42.5153586,16.0989758 C41.2990978,15.6370469 40.2486677,15.2390773 40.2486677,14.3268946 C40.2486677,13.6010063 40.7609114,12.8248641 42.1989578,12.8248641 C43.0474409,12.8248641 43.8241996,13.1268946 44.7179554,13.8035443 L44.8252875,13.884255 L45.897591,12.4583667 L45.7973805,12.3766408 C45.1900131,11.8857779 43.9122018,11.0614124 42.1755584,11.0614124 C39.7552453,11.0614124 38.1294948,12.4116662 38.1294948,14.4213108 C38.1294948,16.3944073 39.9281975,17.2096357 41.6129552,17.8182652 C42.7910647,18.2624276 44.1263573,18.7644581 44.1263573,19.8436459 C44.1263573,20.8568438 43.3160254,21.4862855 42.0117625,21.4862855 C40.5803289,21.4862855 39.5578764,20.8162347 38.7460185,20.1609048 L38.637669,20.0730875 L37.5175493,21.5725799 L37.6162338,21.6543058 C38.8284251,22.6532905 40.445528,23.2507525 41.9415643,23.2507525 C44.914307,23.2507525 46.2450214,21.4807017 46.2450214,19.7268946 C46.2450214,17.4832398 44.3567906,16.7827322 42.6918715,16.1659809" id="Fill-9" fill="#0A2240"></path>
                    <path d="M52.1064725,11.0616154 C49.5656015,11.0616154 46.8655128,13.2057779 46.8655128,17.1798895 C46.8655128,20.7540012 49.1652681,23.2504479 52.4579723,23.2504479 C53.7795304,23.2504479 55.0288556,22.8616154 56.2781807,22.0606002 L56.3824607,21.9941027 L55.5761983,20.4946103 L55.4541145,20.5722753 C54.5262769,21.1646611 53.6487989,21.4402956 52.6919664,21.4402956 C50.6129795,21.4402956 49.2242753,20.0154225 49.0411495,17.7103464 L56.694792,17.7103464 L56.7131046,17.5986713 C56.7593947,17.3204987 56.7848289,16.9392804 56.7848289,16.5245596 C56.7848289,13.104255 55.0359771,11.0616154 52.1064725,11.0616154 M54.8284345,16.1803971 L49.0243629,16.1803971 C49.2797217,14.2113616 50.5504115,12.8489251 52.1532713,12.8489251 C53.8446418,12.8489251 54.7913007,14.0301433 54.8284345,16.1803971" id="Fill-11" fill="#0A2240"></path>
                    <path d="M62.248846,16.1659809 L62.0718243,16.0989758 C60.8560722,15.6370469 59.8056421,15.2390773 59.8056421,14.3268946 C59.8056421,13.6010063 60.3178858,12.8248641 61.7559322,12.8248641 C62.6044153,12.8248641 63.381174,13.1268946 64.2744212,13.8035443 L64.3817532,13.884255 L65.4545654,12.4583667 L65.3538462,12.3766408 C64.7469876,11.8857779 63.4686675,11.0614124 61.7320242,11.0614124 C59.3122197,11.0614124 57.6864692,12.4116662 57.6864692,14.4213108 C57.6864692,16.3944073 59.4846632,17.2096357 61.1699296,17.8182652 C62.3480391,18.2624276 63.6833317,18.7644581 63.6833317,19.8436459 C63.6833317,20.8568438 62.8729998,21.4862855 61.5687369,21.4862855 C60.1373033,21.4862855 59.1148508,20.8162347 58.3029929,20.1609048 L58.1946434,20.0730875 L57.0745238,21.5725799 L57.1726995,21.6543058 C58.3853995,22.6532905 60.0025024,23.2507525 61.49803,23.2507525 C64.4712814,23.2507525 65.8014871,21.4807017 65.8014871,19.7268946 C65.8014871,17.4832398 63.9132563,16.7827322 62.248846,16.1659809" id="Fill-13" fill="#0A2240"></path>
                    <path d="M76.4949168,16.5482144 C76.4949168,19.6857779 75.3107031,21.2761332 72.9748313,21.2761332 C70.7015275,21.2761332 69.5483435,19.6857779 69.5483435,16.5482144 L69.5483435,7.36801135 L67.3126822,7.36801135 L67.3126822,16.5010063 C67.3126822,19.5807017 68.2949489,23.2507525 72.9748313,23.2507525 C77.6552224,23.2507525 78.6374891,19.5807017 78.6374891,16.5010063 L78.6374891,7.36801135 L76.4949168,7.36801135 L76.4949168,16.5482144 Z" id="Fill-15" fill="#3CB4E5"></path>
                    <path d="M87.0347242,14.5316154 L84.8331448,13.59659 L84.779733,13.5732398 C83.5904325,13.0620723 82.360946,12.5341535 82.360946,11.1722246 C82.360946,9.88948344 83.4393537,9.06105704 85.1083422,9.06105704 C86.3734365,9.06105704 87.5169556,9.53669156 88.5058351,10.4737474 L88.6111325,10.5732398 L89.8080633,9.10775755 L89.7261653,9.02197074 C88.5455124,7.79303673 86.8622807,7.08745298 85.1083422,7.08745298 C82.2673483,7.08745298 80.1252847,8.89405196 80.1252847,11.2889758 C80.1252847,13.1148641 81.1706281,14.4473515 83.3213392,15.3620723 L85.520884,16.3199403 L85.562596,16.338722 C86.9889428,16.9803464 88.0190256,17.4443058 88.0190256,18.9092804 C88.0190256,20.3691789 86.8409161,21.2762855 84.9440376,21.2762855 C83.4566489,21.2762855 81.9463694,20.5925291 80.8013243,19.4001433 L80.699079,19.294052 L79.3515781,20.8544581 L79.4360194,20.9422753 C80.8776267,22.4311078 82.8172345,23.2503971 84.8972388,23.2503971 C88.0653157,23.2503971 90.2785949,21.3976053 90.2785949,18.7448134 C90.2785949,16.2701941 88.63911,15.2265393 87.0347242,14.5316154" id="Fill-17" fill="#3CB4E5"></path>
                    <path d="M98.0379418,7.36775755 L95.6435715,7.36775755 L90.3522522,22.969788 L92.6286081,22.969788 L94.1048058,18.2946611 L99.5065092,18.2946611 L100.98169,22.969788 L103.328752,22.969788 L98.0379418,7.36775755 Z M98.9306802,16.4606509 L94.6816522,16.4606509 L95.3760043,14.2971992 C95.8612877,12.7591281 96.3216457,11.2032905 96.8171029,9.42410272 C97.3145947,11.2083667 97.7739353,12.7647119 98.2582014,14.2971992 L98.9306802,16.4606509 Z" id="Fill-19" fill="#3CB4E5"></path>
                    <path d="M65.8001646,28.8147119 C66.1196174,28.8147119 66.3627678,29.0649657 66.3627678,29.4060824 C66.3627678,29.7477068 66.1196174,29.9979606 65.8001646,29.9979606 C65.4807117,29.9979606 65.2299311,29.7477068 65.2299311,29.4060824 C65.2299311,29.0649657 65.4807117,28.8147119 65.8001646,28.8147119" id="Fill-21" fill="#0A2240"></path>
                    <path d="M68.8348649,26.0897372 C69.3140441,26.0897372 69.6792784,26.2800926 69.9300591,26.5222246 L69.5119218,27.075524 C69.3140441,26.9014124 69.1166752,26.8024276 68.881155,26.8024276 C68.2798919,26.8024276 67.8612458,27.2963362 67.8612458,28.0470976 C67.8612458,28.7907525 68.2727703,29.2846611 68.8577556,29.2846611 C69.1624566,29.2846611 69.4203589,29.1328845 69.6263754,28.966387 L69.991101,29.5201941 C69.6411272,29.8313616 69.1924689,29.9978591 68.7667014,29.9978591 C67.7473009,29.9978591 66.9639293,29.2846611 66.9639293,28.0470976 C66.9639293,26.8024276 67.8388638,26.0897372 68.8348649,26.0897372" id="Fill-23" fill="#0A2240"></path>
                    <path d="M71.9158044,26.0897372 C72.8512722,26.0897372 73.6956858,26.8024276 73.6956858,28.0470976 C73.6956858,29.2846611 72.8512722,29.9978591 71.9158044,29.9978591 C70.9874582,29.9978591 70.1435533,29.2846611 70.1435533,28.0470976 C70.1435533,26.8024276 70.9874582,26.0897372 71.9158044,26.0897372 M71.9158044,29.2846611 C72.4631472,29.2846611 72.7978605,28.7907525 72.7978605,28.0470976 C72.7978605,27.2963362 72.4631472,26.8024276 71.9158044,26.8024276 C71.367953,26.8024276 71.0408699,27.2963362 71.0408699,28.0470976 C71.0408699,28.7907525 71.367953,29.2846611 71.9158044,29.2846611" id="Fill-25" fill="#0A2240"></path>
                    <path d="M74.4105379,26.1809555 L75.1338849,26.1809555 L75.1939095,26.689585 L75.2249391,26.689585 C75.5367617,26.3555748 75.901996,26.089585 76.3659148,26.089585 C76.9127489,26.089585 77.2245715,26.3393312 77.3995584,26.7576053 C77.7571625,26.3779098 78.130027,26.089585 78.6010674,26.089585 C79.3920692,26.089585 79.7578122,26.6281636 79.7578122,27.5692804 L79.7578122,29.9073515 L78.8752474,29.9073515 L78.8752474,27.6834936 C78.8752474,27.0687728 78.6926303,26.8413616 78.3045053,26.8413616 C78.0689851,26.8413616 77.8110829,26.9931383 77.5216423,27.3043058 L77.5216423,29.9073515 L76.6467078,29.9073515 L76.6467078,27.6834936 C76.6467078,27.0687728 76.4640906,26.8413616 76.068844,26.8413616 C75.8409541,26.8413616 75.5744043,26.9931383 75.2859811,27.3043058 L75.2859811,29.9073515 L74.4105379,29.9073515 L74.4105379,26.1809555 Z" id="Fill-27" fill="#0A2240"></path>
                    <path d="M82.2513757,29.9073007 L98.0297011,29.9073007 L98.9051443,29.9073007 L98.979412,29.9073007 L99.6330695,29.9073007 C99.712424,29.9073007 99.7892352,29.8925799 99.8624855,29.8717677 C100.821353,29.8022246 102.30925,29.5986713 103.445139,28.9956256 C104.642578,28.3606002 106.351244,27.1966408 107.370645,24.4311586 C107.80099,23.2631383 108.352403,21.3519707 108.8209,19.6458794 L108.821917,19.6468946 C108.822934,19.6423261 108.830056,19.6144073 108.841247,19.5712601 C109.314322,17.8438489 109.777732,16.004255 110.176031,14.3616154 C110.669453,12.462123 111.187292,10.5103464 111.516919,9.37024486 C112.523602,5.89613318 110.882591,5.20171694 108.39971,4.14892506 L108.186572,4.05958496 C107.581239,3.80222455 106.747508,3.52202151 105.819162,3.2433413 L105.816619,3.23928039 C105.762698,3.22405196 105.708269,3.20882354 105.654857,3.19410272 C105.10141,3.02862049 104.517951,2.86516871 103.929405,2.70628547 C102.144946,2.21288445 100.359469,1.76719917 98.5638181,1.38090475 C98.3135461,1.32303673 98.1502589,1.28648851 98.1024427,1.275321 L98.0953212,1.28039714 C95.0427153,0.642833689 91.9565363,0.190549425 88.7843898,0.0545088157 C82.9828617,-0.194222149 77.1447083,0.408315922 71.5227452,1.86161541 C70.4341638,2.1433413 69.3537214,2.4468946 68.2819266,2.79156465 C66.181575,3.46618394 64.1264962,4.28496567 62.1161815,5.19562557 C61.5968162,5.43166618 61.0555777,5.675321 60.5372298,5.93318902 C60.2625411,6.07075247 59.9903957,6.21237684 59.7233372,6.36313826 C59.5147772,6.48090475 59.1617513,6.60527024 59.0737492,6.84435653 C59.0284764,6.96669156 59.0391587,7.10527024 59.1042702,7.21745298 L59.1408953,7.28090475 C59.3158822,7.58293521 59.622618,7.50222455 59.8739073,7.37126008 C60.2437198,7.17785907 60.6191278,6.99207227 60.9965705,6.81237684 C62.3974831,6.14537176 63.8451945,5.55958496 65.2959581,5.00831592 C66.452703,4.56872201 67.6247083,4.16719917 68.8094307,3.80983876 C70.2357775,3.37988953 71.6804369,3.01186922 73.1373046,2.70679308 C74.8357967,2.3504479 76.5515841,2.08141237 78.2765277,1.8930875 C80.2502173,1.67938191 82.2366239,1.57379816 84.2215045,1.5682144 C86.4764956,1.56313826 88.7299608,1.68699613 90.9717262,1.92659003 C93.5090364,2.19917887 96.02956,2.61897582 98.5210888,3.16567633 C101.342753,3.78547328 104.1283,4.56719917 106.868066,5.48141237 C107.001341,5.52659003 107.290782,5.6326814 107.533932,5.72252912 L107.700271,5.79359511 C110.161788,6.83572709 110.363735,6.92202151 109.797571,8.87430577 C109.673961,9.30222455 109.484222,10.0113616 109.265488,10.8499403 L109.255315,10.8580621 C109.253789,10.862123 109.229881,10.9671992 109.18766,11.1489251 C108.455665,13.9702449 107.457121,17.9880114 107.43423,18.0809048 C106.897061,20.0372499 106.233738,22.3392804 105.690465,23.8138997 C104.892342,25.9824276 103.622669,26.8788743 102.605812,27.4189758 C101.223212,28.1519707 98.9275264,28.2062855 98.9051443,28.2062855 L98.0297011,28.2062855 L82.2513757,28.2062855 L82.2513757,29.9073007 Z" id="Fill-29" fill="#EA6852"></path>
                </g>
            </g>
        </g>
    </g>
</svg>